<?xml version="1.0" standalone="no"?>
<!DOCTYPE svg PUBLIC "-//W3C//DTD SVG 20010904//EN"
 "http://www.w3.org/TR/2001/REC-SVG-20010904/DTD/svg10.dtd">
<svg version="1.0" xmlns="http://www.w3.org/2000/svg"
 width="70.000000pt" height="70.000000pt" viewBox="0 0 70.000000 70.000000"
 preserveAspectRatio="xMidYMid meet">
<metadata>
Created by potrace 1.11, written by Peter Selinger 2001-2013
</metadata>
<g transform="translate(0.000000,70.000000) scale(0.100000,-0.100000)"
fill="#000000" stroke="none">
<path d="M420 595 c-13 -16 -10 -51 5 -48 5 1 11 7 13 15 2 9 0 8 -7 -2 -9
-12 -11 -11 -11 8 0 22 25 41 37 28 12 -12 -18 -86 -40 -98 -12 -7 -24 -13
-27 -13 -3 0 -15 -7 -28 -14 -20 -11 -26 -10 -43 5 -18 16 -19 16 -19 -7 0
-21 -5 -24 -36 -26 -42 -2 -103 -29 -110 -48 -4 -10 -12 -11 -34 -3 -51 17
-84 7 -95 -30 -5 -17 -13 -32 -17 -32 -4 0 -8 -49 -8 -110 0 -91 3 -110 15
-110 19 0 19 -19 0 -26 -10 -4 -15 -20 -15 -45 l0 -39 300 0 c296 0 301 0 290
20 -6 11 -19 24 -30 30 -11 6 -26 23 -34 37 -12 24 -12 29 2 39 13 9 11 14
-17 30 -67 40 -48 118 33 138 50 12 90 63 110 139 17 61 17 70 3 84 -11 12
-19 13 -36 4 -11 -7 -21 -16 -21 -21 0 -15 18 -21 26 -9 4 8 3 9 -4 5 -7 -4
-12 -3 -12 2 0 14 28 23 36 11 10 -17 -27 -50 -91 -80 -65 -31 -95 -38 -77
-16 6 7 14 40 17 74 7 54 5 65 -14 92 -24 34 -42 39 -61 16z m-155 -261 c-23
-17 -56 -15 -63 4 -2 8 9 12 40 12 40 -1 42 -2 23 -16z m-135 -45 c0 -8 5 -7
16 2 14 11 18 11 29 -4 7 -9 21 -17 31 -18 14 -1 13 -3 -6 -8 -14 -4 -30 -4
-37 1 -7 5 -13 4 -15 -3 -3 -8 -11 -10 -24 -4 -10 4 -23 9 -28 9 -18 2 -17 24
1 29 30 8 33 7 33 -4z"/>
</g>
</svg>
